<svg id="Layer_1" data-name="Layer 1" xmlns="http://www.w3.org/2000/svg" viewBox="0 0 1623.16 342.01"><defs><style>.cls-1,.cls-3{fill:none;}.cls-1,.cls-2,.cls-7{stroke:#09c;stroke-width:6px;}.cls-1,.cls-2,.cls-3,.cls-7{stroke-miterlimit:10;}.cls-2,.cls-8{fill:#fff;}.cls-3{stroke:#000;stroke-width:2px;}.cls-12,.cls-4{font-size:33.5px;}.cls-4{fill:#333;}.cls-4,.cls-8{font-family:DINAlternate-Bold, DIN Alternate;font-weight:700;}.cls-5{letter-spacing:-0.02em;}.cls-6{letter-spacing:-0.02em;}.cls-7{fill:#09c;}.cls-8{font-size:36.3px;}.cls-9{letter-spacing:-0.02em;}.cls-10{letter-spacing:-0.03em;}.cls-11{letter-spacing:-0.07em;}.cls-12{fill:#444;font-family:LaoSangamMN, Lao Sangam MN;}</style></defs><title>crying-timeline</title><line class="cls-1" x1="46.97" y1="84.32" x2="1218.9" y2="84.32"/><rect class="cls-2" x="770.25" y="57.33" width="247.93" height="53.98" rx="9.67" ry="9.67"/><line class="cls-3" x1="46.97" y1="265.81" x2="1623.16" y2="265.81"/><text class="cls-4" transform="translate(0 332.82)"><tspan class="cls-5">F</tspan><tspan x="17.19" y="0">all 2013</tspan></text><text class="cls-4" transform="translate(198.24 332.82)">Winter 2014</text><text class="cls-4" transform="translate(438.36 332.82)">Spring</text><text class="cls-4" transform="translate(605.88 332.82)">Summer</text><text class="cls-4" transform="translate(794.81 332.82)"><tspan class="cls-5">F</tspan><tspan x="17.19" y="0">all</tspan></text><text class="cls-4" transform="translate(921.38 332.82)">Winter 2015</text><text class="cls-4" transform="translate(1161.5 332.82)">Spring</text><text class="cls-4" transform="translate(1329.03 332.82)">Summer</text><text class="cls-4" transform="translate(1517.96 332.82)"><tspan class="cls-6">F</tspan><tspan x="17.19" y="0">all</tspan></text><rect class="cls-7" x="482.1" y="144.82" width="1072.16" height="53.98" rx="9.67" ry="9.67"/><text class="cls-8" transform="translate(507.23 183.91)">ROBIN TR<tspan class="cls-9" x="149.58" y="0">A</tspan><tspan x="171.06" y="0">CKS C</tspan><tspan class="cls-10" x="263.83" y="0">R</tspan><tspan x="284.88" y="0">YING</tspan></text><path class="cls-7" d="M242.38,57.33H822.3a0,0,0,0,1,0,0v54a0,0,0,0,1,0,0h-580a9.62,9.62,0,0,1-9.62-9.62V67a9.71,9.71,0,0,1,9.71-9.71Z"/><text class="cls-8" transform="translate(254.54 96.42)">AD AND ROBIN <tspan class="cls-9" x="241.53" y="0">D</tspan><tspan class="cls-11" x="263.74" y="0">A</tspan><tspan x="283.18" y="0">TE</tspan></text><text class="cls-12" transform="translate(959.56 30.92)">breakup</text><text class="cls-12" transform="translate(1196.59 28.48)">cut<tspan x="-32.7" y="36.3">contact</tspan></text><text class="cls-12" transform="translate(10.14 28.48)">meet<tspan x="-5.73" y="36.3">online</tspan></text><text class="cls-12" transform="translate(778.19 30.92)">“truth”</text></svg>