<svg id="Layer_2" data-name="Layer 2" xmlns="http://www.w3.org/2000/svg" viewBox="0 0 1611.07 735.94"><defs><style>.cls-1,.cls-12,.cls-13,.cls-2,.cls-3,.cls-4,.cls-5,.cls-6{fill:none;stroke-miterlimit:10;}.cls-1{stroke:#09c;}.cls-1,.cls-2,.cls-3,.cls-4,.cls-5,.cls-6{stroke-width:3px;}.cls-2{stroke:#ff5c5c;}.cls-3{stroke:#d7b49e;}.cls-4{stroke:#ffd92f;}.cls-5{stroke:#c266c2;}.cls-6{stroke:#0c9;}.cls-7{font-size:34.59px;fill:#333;font-family:LaoSangamMN, Lao Sangam MN;}.cls-8{letter-spacing:-0.01em;}.cls-9{letter-spacing:0em;}.cls-10{letter-spacing:0em;}.cls-11,.cls-18{font-size:32.29px;fill:#666;font-family:DINAlternate-Bold, DIN Alternate;font-weight:700;}.cls-12{stroke:#888;stroke-width:0.75px;}.cls-13{stroke:#666;}.cls-14{letter-spacing:-0.01em;}.cls-15{letter-spacing:-0.02em;}.cls-16{letter-spacing:-0.01em;}.cls-17{letter-spacing:-0.01em;}.cls-18{letter-spacing:-0.02em;}.cls-19{letter-spacing:0em;}</style></defs><title>crying-over-time</title><path class="cls-1" d="M1626.81,697.1c-376.18,3.77-690.79.31-1066.72,1.46L283.34,612.08c-9.22-26.52-12.68-53-20.75-79.57-8.08-25.37-12.69-49.58-19.61-74.95-34.59-130.3-66.88-253.69-99.62-380.82" transform="translate(-15.79 -20.41)"/><polyline class="cls-2" points="1478.69 678.59 545.3 678.59 406.06 513.24 127.56 595.91"/><path class="cls-3" d="M143.36,655.49c45.42.41,90.4,1.56,135.37,2.72,48.43-13.84,96.86-26.53,146.45-40.36,4.61-1.16,9.22-4.62,13.83-6.92,43.82-27.68,84.18-51.89,126.85-77.26,42.67-38.06,84.18-73.8,128-111.86l12.68-12.68H850.68a8.77,8.77,0,0,1,4.62,2.3c43.81,41.52,87.63,80.72,131.45,121.08,48.43,3.46,98,0,146.45,1.16C1177,587.86,1219.69,639.76,1264.66,694c1.15,1.16,0,2.31,1.15,3.46a8.77,8.77,0,0,0,4.61,2.31c139.53-8.07,356.39-.72,356.39-.72" transform="translate(-15.79 -20.41)"/><polyline class="cls-4" points="127.56 430.56 266.81 591.56 412.58 595.91 545.3 347.88 695.43 434.91 828.15 678.59 1611.02 678.59"/><polyline class="cls-5" points="127.56 554.58 264.63 513.24 412.58 595.91 547.48 639.43 682.37 595.91 828.15 678.59 1611.02 678.59"/><polyline class="cls-6" points="127.56 393.57 264.63 637.25 413.02 637.25 549.65 513.24 682.37 595.91 834.67 595.91 971.75 513.24 1117.52 637.25 1256.77 637.25 1398.19 552.4 1537.43 678.59"/><text class="cls-7" transform="translate(67.82 41.34)">d<tspan class="cls-8" x="18.13" y="0">e</tspan><tspan class="cls-9" x="36.88" y="0">v</tspan><tspan class="cls-10" x="52.27" y="0">astated</tspan></text><text class="cls-7" transform="translate(254.37 502.16)">hurt</text><text class="cls-7" transform="translate(517.89 336.42)">angry</text><text class="cls-7" transform="translate(737.07 379.08)">sad</text><text class="cls-7" transform="translate(1351.18 543)">mournful</text><text class="cls-11" transform="translate(77.69 727.08)">Nov 14</text><line class="cls-12" x1="54.37" y1="513.24" x2="1611.02" y2="513.24"/><line class="cls-13" x1="54.37" y1="678.59" x2="1611.02" y2="678.59"/><line class="cls-12" x1="54.37" y1="347.88" x2="1611.02" y2="347.88"/><line class="cls-12" x1="54.37" y1="182.53" x2="1611.02" y2="182.53"/><line class="cls-12" x1="54.37" y1="17.17" x2="1611.02" y2="17.17"/><text class="cls-11" transform="translate(239.85 727.08)">Dec</text><text class="cls-11" transform="translate(365.81 727.08)"><tspan class="cls-14">J</tspan><tspan x="15.34" y="0">an 15</tspan></text><text class="cls-11" transform="translate(523.75 727.08)"><tspan class="cls-15">F</tspan><tspan x="16.76" y="0">eb</tspan></text><text class="cls-11" transform="translate(661.41 727.08)">Mar</text><text class="cls-11" transform="translate(806.24 727.08)">Apr</text><text class="cls-11" transform="translate(940.25 727.08)">M<tspan class="cls-16" x="24.47" y="0">a</tspan><tspan x="40.42" y="0">y</tspan></text><text class="cls-11" transform="translate(1088.14 727.08)"><tspan class="cls-17">J</tspan><tspan x="15.13" y="0">un</tspan></text><text class="cls-11" transform="translate(1238.71 727.08)"><tspan class="cls-17">J</tspan><tspan x="15.13" y="0">ul</tspan></text><text class="cls-18" transform="translate(1364.49 727.08)">A<tspan class="cls-19" x="19.11" y="0">ug</tspan></text><text class="cls-11" transform="translate(1508.57 727.08)">Sep</text><text class="cls-11" transform="translate(15.5 526.28)">4</text><text class="cls-11" transform="translate(15.5 360.1)">8</text><text class="cls-11" transform="translate(0 193.92)">12</text><text class="cls-11" transform="translate(0 27.73)">16</text><text class="cls-11" transform="translate(15.5 692.47)">0</text><text class="cls-7" transform="translate(355.36 502.16)">miserable</text><line class="cls-12" x1="54.37" y1="595.91" x2="1611.02" y2="595.91"/><line class="cls-12" x1="54.37" y1="430.56" x2="1611.02" y2="430.56"/><line class="cls-12" x1="54.37" y1="265.2" x2="1611.02" y2="265.2"/><line class="cls-12" x1="54.37" y1="99.85" x2="1611.02" y2="99.85"/></svg>