<svg id="Layer_1" data-name="Layer 1" xmlns="http://www.w3.org/2000/svg" viewBox="0 0 5413.38 3202.23"><defs><style>.cls-1{fill:none;stroke:#ccc;stroke-miterlimit:10;stroke-width:3px;}.cls-10,.cls-2,.cls-8{font-size:214.75px;font-family:DINAlternate-Bold, DIN Alternate;font-weight:700;}.cls-2,.cls-8{fill:#666;}.cls-3{fill:#09c;}.cls-4{letter-spacing:-0.02em;}.cls-5{letter-spacing:-0.01em;}.cls-6{letter-spacing:-0.01em;}.cls-7{letter-spacing:0em;}.cls-8{letter-spacing:-0.01em;}.cls-9{letter-spacing:0em;}.cls-10{fill:#fef;}.cls-11{letter-spacing:-0.02em;}.cls-12{letter-spacing:-0.06em;}.cls-13{letter-spacing:-0.07em;}.cls-14{letter-spacing:-0.13em;}</style></defs><title>long-distance</title><line class="cls-1" x1="5344.3" y1="2741.92" x2="5344.3"/><line class="cls-1" x1="516.45" y1="2741.92" x2="516.45"/><line class="cls-1" x1="4905.4" y1="2741.92" x2="4905.4"/><line class="cls-1" x1="4466.51" y1="2741.92" x2="4466.51"/><line class="cls-1" x1="4027.61" y1="2741.92" x2="4027.61"/><line class="cls-1" x1="3588.72" y1="2741.92" x2="3588.72"/><line class="cls-1" x1="3149.82" y1="2741.92" x2="3149.82"/><line class="cls-1" x1="2710.92" y1="2741.92" x2="2710.92"/><line class="cls-1" x1="2272.03" y1="2741.92" x2="2272.03"/><line class="cls-1" x1="1833.13" y1="2741.92" x2="1833.13"/><line class="cls-1" x1="1394.24" y1="2741.92" x2="1394.24"/><line class="cls-1" x1="955.34" y1="2741.92" x2="955.34"/><text class="cls-2" transform="translate(480.65 2941.19) scale(0.58)">0</text><text class="cls-2" transform="translate(4852.96 2941.2) scale(0.58)">10</text><text class="cls-2" transform="translate(4442.77 2941.2) scale(0.58)">9</text><text class="cls-2" transform="translate(4002.53 2941.2) scale(0.58)">8</text><text class="cls-2" transform="translate(3562.3 2941.2) scale(0.58)">7</text><text class="cls-2" transform="translate(3122.06 2941.2) scale(0.58)">6</text><text class="cls-2" transform="translate(2681.83 2941.2) scale(0.58)">5</text><text class="cls-2" transform="translate(2241.59 2941.2) scale(0.58)">4</text><text class="cls-2" transform="translate(1801.36 2941.2) scale(0.58)">3</text><text class="cls-2" transform="translate(1361.12 2941.2) scale(0.58)">2</text><text class="cls-2" transform="translate(5293.2 2941.2) scale(0.58)">11</text><text class="cls-2" transform="translate(173.43 2691.77) scale(0.58)">Nov</text><rect class="cls-3" x="516.43" y="2561.44" width="1109.84" height="180.48" rx="90.24" ry="90.24"/><text class="cls-2" transform="translate(210.54 2459.19) scale(0.58)">Oct</text><rect class="cls-3" x="516.43" y="2329.27" width="2442.96" height="180.48" rx="90.24" ry="90.24"/><text class="cls-2" transform="translate(177.83 2226.85) scale(0.58)">Sep</text><rect class="cls-3" x="516.43" y="2097.34" width="2442.96" height="180.48" rx="90.24" ry="90.24"/><text class="cls-2" transform="translate(170.93 1994.4) scale(0.58)"><tspan class="cls-4">A</tspan><tspan x="127.09" y="0">ug</tspan></text><rect class="cls-3" x="516.43" y="1865.3" width="4388.97" height="180.48" rx="90.24" ry="90.24"/><text class="cls-2" transform="translate(219.04 1762.05) scale(0.58)"><tspan class="cls-5">J</tspan><tspan x="100.66" y="0">ul</tspan></text><rect class="cls-3" x="516.43" y="1633.34" width="4189.65" height="180.48" rx="90.24" ry="90.24"/><text class="cls-2" transform="translate(2507.15 3167.87) scale(0.58)">Number of D<tspan class="cls-6" x="1152.91" y="0">a</tspan><tspan class="cls-7" x="1259.03" y="0">ys</tspan></text><text class="cls-2" transform="translate(184.07 1529.49) scale(0.58)"><tspan class="cls-5">J</tspan><tspan x="100.66" y="0">un</tspan></text><rect class="cls-3" x="516.43" y="1401.2" width="2633.39" height="180.48" rx="90.24" ry="90.24"/><text class="cls-2" transform="translate(171.05 832.12) scale(0.58)">Mar</text><rect class="cls-3" x="516.43" y="705.06" width="3511.18" height="180.48" rx="90.24" ry="90.24"/><text class="cls-2" transform="translate(0 134.76) scale(0.58)">Dec ‘13</text><rect class="cls-3" x="516.43" y="8.91" width="1109.84" height="180.48" rx="90.24" ry="90.24"/><text class="cls-2" transform="translate(164.93 1297.04) scale(0.58)">M<tspan class="cls-6" x="162.74" y="0">a</tspan><tspan x="268.86" y="0">y</tspan></text><rect class="cls-3" x="516.43" y="1169.15" width="4827.87" height="180.48" rx="90.24" ry="90.24"/><text class="cls-2" transform="translate(187.19 1064.57) scale(0.58)">Apr</text><rect class="cls-3" x="516.43" y="937.11" width="1755.59" height="180.48" rx="90.24" ry="90.24"/><text class="cls-2" transform="translate(184.68 599.67) scale(0.58)"><tspan class="cls-4">F</tspan><tspan x="111.46" y="0">eb</tspan></text><rect class="cls-3" x="516.43" y="473.01" width="1552.45" height="180.48" rx="90.24" ry="90.24"/><text class="cls-8" transform="translate(7.7 367.21) scale(0.58)">J<tspan class="cls-9" x="102.03" y="0">an ‘14</tspan></text><rect class="cls-3" x="516.45" y="240.96" width="1316.69" height="180.48" rx="90.24" ry="90.24"/><text class="cls-10" transform="translate(571.11 2695.18) scale(0.58)">NYC</text><text class="cls-10" transform="translate(571.11 2463.26) scale(0.58)">CHIC<tspan class="cls-4" x="433.38" y="0">A</tspan><tspan x="560.47" y="0">GO</tspan></text><text class="cls-10" transform="translate(571.11 2231.09) scale(0.58)">BOS<tspan class="cls-4" x="385.14" y="0">T</tspan><tspan x="488.64" y="0">ON, PR</tspan><tspan class="cls-11" x="1127.75" y="0">O</tspan><tspan x="1253.37" y="0">VIDENCE</tspan></text><text class="cls-10" transform="translate(571.11 1999.04) scale(0.58)">SCANDIN<tspan class="cls-12" x="858.05" y="0">A</tspan><tspan x="977.17" y="0">VIA, BOS</tspan><tspan class="cls-4" x="1771.05" y="0">T</tspan><tspan x="1874.55" y="0">ON</tspan></text><text class="cls-10" transform="translate(571.11 1766.9) scale(0.58)">BALKANS, I<tspan class="cls-13" x="1076.05" y="0">T</tspan><tspan x="1167.49" y="0">A</tspan><tspan class="cls-14" x="1298.45" y="0">L</tspan><tspan x="1390.21" y="0">Y</tspan></text><text class="cls-10" transform="translate(571.11 1534.94) scale(0.58)">BOS<tspan class="cls-4" x="385.14" y="0">T</tspan><tspan x="488.64" y="0">ON, MAINE</tspan></text><text class="cls-10" transform="translate(571.11 838.8) scale(0.58)">BOS<tspan class="cls-4" x="385.14" y="0">T</tspan><tspan x="488.64" y="0">ON, CAPE COD, VERMONT</tspan></text><text class="cls-10" transform="translate(571.11 142.66) scale(0.58)">BOS<tspan class="cls-4" x="385.14" y="0">T</tspan><tspan x="488.64" y="0">ON</tspan></text><text class="cls-10" transform="translate(571.11 1302.9) scale(0.58)">CHIC<tspan class="cls-4" x="433.38" y="0">A</tspan><tspan x="560.47" y="0">GO</tspan></text><text class="cls-10" transform="translate(571.11 1070.85) scale(0.58)">CHIC<tspan class="cls-4" x="433.38" y="0">A</tspan><tspan x="560.47" y="0">GO</tspan></text><text class="cls-10" transform="translate(571.11 606.75) scale(0.58)">CHIC<tspan class="cls-4" x="433.38" y="0">A</tspan><tspan x="560.47" y="0">GO</tspan></text><text class="cls-10" transform="translate(571.11 374.71) scale(0.58)">CHIC<tspan class="cls-4" x="433.38" y="0">A</tspan><tspan x="560.47" y="0">GO</tspan></text><text class="cls-2" transform="translate(920.88 2941.2) scale(0.58)">1</text></svg>