<svg id="Layer_1" data-name="Layer 1" xmlns="http://www.w3.org/2000/svg" viewBox="0 0 5248.45 3202.23"><defs><style>.cls-1{fill:none;stroke:#ccc;stroke-miterlimit:10;stroke-width:3px;}.cls-10,.cls-2,.cls-8{font-size:214.75px;font-family:DINAlternate-Bold, DIN Alternate;font-weight:700;}.cls-2,.cls-8{fill:#666;}.cls-3{fill:#09c;}.cls-4{letter-spacing:-0.02em;}.cls-5{letter-spacing:-0.01em;}.cls-6{letter-spacing:-0.01em;}.cls-7{letter-spacing:0em;}.cls-8{letter-spacing:-0.01em;}.cls-9{letter-spacing:0em;}.cls-10{fill:#fef;}.cls-11{letter-spacing:-0.02em;}.cls-12{letter-spacing:-0.06em;}.cls-13{letter-spacing:-0.07em;}.cls-14{letter-spacing:-0.13em;}</style></defs><title>long-distance</title><line class="cls-1" x1="5179.36" y1="2741.92" x2="5179.36"/><line class="cls-1" x1="351.51" y1="2741.92" x2="351.51"/><line class="cls-1" x1="4740.47" y1="2741.92" x2="4740.47"/><line class="cls-1" x1="4301.57" y1="2741.92" x2="4301.57"/><line class="cls-1" x1="3862.68" y1="2741.92" x2="3862.68"/><line class="cls-1" x1="3423.78" y1="2741.92" x2="3423.78"/><line class="cls-1" x1="2984.89" y1="2741.92" x2="2984.89"/><line class="cls-1" x1="2545.99" y1="2741.92" x2="2545.99"/><line class="cls-1" x1="2107.09" y1="2741.92" x2="2107.09"/><line class="cls-1" x1="1668.2" y1="2741.92" x2="1668.2"/><line class="cls-1" x1="1229.3" y1="2741.92" x2="1229.3"/><line class="cls-1" x1="790.41" y1="2741.92" x2="790.41"/><text class="cls-2" transform="translate(315.72 2941.19) scale(0.58)">0</text><text class="cls-2" transform="translate(4688.03 2941.2) scale(0.58)">10</text><text class="cls-2" transform="translate(4277.83 2941.2) scale(0.58)">9</text><text class="cls-2" transform="translate(3837.6 2941.2) scale(0.58)">8</text><text class="cls-2" transform="translate(3397.36 2941.2) scale(0.58)">7</text><text class="cls-2" transform="translate(2957.13 2941.2) scale(0.58)">6</text><text class="cls-2" transform="translate(2516.9 2941.2) scale(0.58)">5</text><text class="cls-2" transform="translate(2076.65 2941.2) scale(0.58)">4</text><text class="cls-2" transform="translate(1636.43 2941.2) scale(0.58)">3</text><text class="cls-2" transform="translate(1196.19 2941.2) scale(0.58)">2</text><text class="cls-2" transform="translate(5128.27 2941.2) scale(0.58)">11</text><text class="cls-2" transform="translate(8.5 2691.77) scale(0.58)">Nov</text><rect class="cls-3" x="351.49" y="2561.44" width="1109.84" height="180.48" rx="90.24" ry="90.24"/><text class="cls-2" transform="translate(45.6 2459.19) scale(0.58)">Oct</text><rect class="cls-3" x="351.49" y="2329.27" width="2442.96" height="180.48" rx="90.24" ry="90.24"/><text class="cls-2" transform="translate(12.9 2226.85) scale(0.58)">Sep</text><rect class="cls-3" x="351.49" y="2097.34" width="2442.96" height="180.48" rx="90.24" ry="90.24"/><text class="cls-2" transform="translate(5.99 1994.4) scale(0.58)"><tspan class="cls-4">A</tspan><tspan x="127.09" y="0">ug</tspan></text><rect class="cls-3" x="351.49" y="1865.3" width="4388.97" height="180.48" rx="90.24" ry="90.24"/><text class="cls-2" transform="translate(54.1 1762.05) scale(0.58)"><tspan class="cls-5">J</tspan><tspan x="100.66" y="0">ul</tspan></text><rect class="cls-3" x="351.49" y="1633.34" width="4189.65" height="180.48" rx="90.24" ry="90.24"/><text class="cls-2" transform="translate(2342.22 3167.87) scale(0.58)">Number of D<tspan class="cls-6" x="1152.91" y="0">a</tspan><tspan class="cls-7" x="1259.03" y="0">ys</tspan></text><text class="cls-2" transform="translate(19.13 1529.49) scale(0.58)"><tspan class="cls-5">J</tspan><tspan x="100.66" y="0">un</tspan></text><rect class="cls-3" x="351.49" y="1401.2" width="2633.39" height="180.48" rx="90.24" ry="90.24"/><text class="cls-2" transform="translate(6.11 832.12) scale(0.58)">Mar</text><rect class="cls-3" x="351.49" y="705.06" width="3511.18" height="180.48" rx="90.24" ry="90.24"/><text class="cls-2" transform="translate(15.28 134.76) scale(0.58)">Dec</text><rect class="cls-3" x="351.49" y="8.91" width="1109.84" height="180.48" rx="90.24" ry="90.24"/><text class="cls-2" transform="translate(0 1297.04) scale(0.58)">M<tspan class="cls-6" x="162.74" y="0">a</tspan><tspan x="268.86" y="0">y</tspan></text><rect class="cls-3" x="351.49" y="1169.15" width="4827.87" height="180.48" rx="90.24" ry="90.24"/><text class="cls-2" transform="translate(22.25 1064.57) scale(0.58)">Apr</text><rect class="cls-3" x="351.49" y="937.11" width="1755.59" height="180.48" rx="90.24" ry="90.24"/><text class="cls-2" transform="translate(19.75 599.67) scale(0.58)"><tspan class="cls-4">F</tspan><tspan x="111.46" y="0">eb</tspan></text><rect class="cls-3" x="351.49" y="473.01" width="1552.45" height="180.48" rx="90.24" ry="90.24"/><text class="cls-8" transform="translate(22.99 367.21) scale(0.58)">J<tspan class="cls-9" x="102.03" y="0">an</tspan></text><rect class="cls-3" x="351.51" y="240.96" width="1316.69" height="180.48" rx="90.24" ry="90.24"/><text class="cls-10" transform="translate(406.17 2695.18) scale(0.58)">NYC</text><text class="cls-10" transform="translate(406.17 2463.26) scale(0.58)">CHIC<tspan class="cls-4" x="433.38" y="0">A</tspan><tspan x="560.47" y="0">GO</tspan></text><text class="cls-10" transform="translate(406.17 2231.09) scale(0.58)">BOS<tspan class="cls-4" x="385.14" y="0">T</tspan><tspan x="488.64" y="0">ON, PR</tspan><tspan class="cls-11" x="1127.75" y="0">O</tspan><tspan x="1253.37" y="0">VIDENCE</tspan></text><text class="cls-10" transform="translate(406.17 1999.04) scale(0.58)">SCANDIN<tspan class="cls-12" x="858.05" y="0">A</tspan><tspan x="977.17" y="0">VIA, BOS</tspan><tspan class="cls-4" x="1771.05" y="0">T</tspan><tspan x="1874.55" y="0">ON</tspan></text><text class="cls-10" transform="translate(406.17 1766.9) scale(0.58)">BALKANS, I<tspan class="cls-13" x="1076.05" y="0">T</tspan><tspan x="1167.49" y="0">A</tspan><tspan class="cls-14" x="1298.45" y="0">L</tspan><tspan x="1390.21" y="0">Y</tspan></text><text class="cls-10" transform="translate(406.17 1534.94) scale(0.58)">BOS<tspan class="cls-4" x="385.14" y="0">T</tspan><tspan x="488.64" y="0">ON, MAINE</tspan></text><text class="cls-10" transform="translate(406.17 838.8) scale(0.58)">BOS<tspan class="cls-4" x="385.14" y="0">T</tspan><tspan x="488.64" y="0">ON, CAPE COD, VERMONT</tspan></text><text class="cls-10" transform="translate(406.17 142.66) scale(0.58)">BOS<tspan class="cls-4" x="385.14" y="0">T</tspan><tspan x="488.64" y="0">ON</tspan></text><text class="cls-10" transform="translate(406.17 1302.9) scale(0.58)">CHIC<tspan class="cls-4" x="433.38" y="0">A</tspan><tspan x="560.47" y="0">GO</tspan></text><text class="cls-10" transform="translate(406.17 1070.85) scale(0.58)">CHIC<tspan class="cls-4" x="433.38" y="0">A</tspan><tspan x="560.47" y="0">GO</tspan></text><text class="cls-10" transform="translate(406.17 606.75) scale(0.58)">CHIC<tspan class="cls-4" x="433.38" y="0">A</tspan><tspan x="560.47" y="0">GO</tspan></text><text class="cls-10" transform="translate(406.17 374.71) scale(0.58)">CHIC<tspan class="cls-4" x="433.38" y="0">A</tspan><tspan x="560.47" y="0">GO</tspan></text><text class="cls-2" transform="translate(755.95 2941.2) scale(0.58)">1</text></svg>