<svg id="Layer_1" data-name="Layer 1" xmlns="http://www.w3.org/2000/svg" viewBox="0 0 1362.79 1194.37"><defs><style>.cls-1{fill:#0c9;}.cls-1,.cls-2,.cls-3{stroke:#fff;stroke-miterlimit:10;stroke-width:8px;}.cls-2{fill:#009ddc;}.cls-3{fill:#c266c2;}.cls-4,.cls-6{font-size:42.24px;font-family:DINAlternate-Bold, DIN Alternate;font-weight:700;}.cls-4{fill:#222;}.cls-5{letter-spacing:-0.07em;}.cls-6{fill:#fff;}.cls-7{letter-spacing:-0.03em;}.cls-8{letter-spacing:-0.06em;}.cls-9{letter-spacing:0em;}.cls-10{letter-spacing:-0.13em;}.cls-11{letter-spacing:-0.11em;}.cls-12{font-size:38.02px;font-family:MyanmarSangamMN, Myanmar Sangam MN;}.cls-13{letter-spacing:-0.01em;}.cls-14{letter-spacing:0em;}.cls-15{letter-spacing:-0.03em;}.cls-16{letter-spacing:-0.01em;}.cls-17{letter-spacing:-0.05em;}.cls-18{letter-spacing:0em;}</style></defs><title>reasons-for-crying</title><path class="cls-1" d="M949,504.89C903.11,330.83,744.65,202.48,556.2,202.48l-2,0V608.64Z"/><path class="cls-2" d="M554.17,202.5C330.78,203.6,150,385,150,608.64a404.7,404.7,0,0,0,108.9,276.74L554.17,608.64Z"/><path class="cls-3" d="M554.17,608.64,258.93,885.38A405,405,0,0,0,556.2,1014.81c224.32,0,406.17-181.84,406.17-406.17A406.55,406.55,0,0,0,949,504.89Z"/><text class="cls-4" transform="translate(579.13 427.4)">REL<tspan class="cls-5" x="72.75" y="0">A</tspan><tspan x="95.38" y="0">TIONSHIP</tspan><tspan x="103.56" y="50.69">21%</tspan></text><text class="cls-6" transform="translate(469.46 782.01)">“TRUTH” / BREAKUP<tspan x="150.51" y="50.69">42%</tspan></text><text class="cls-6" transform="translate(237.02 479.47)">EVE<tspan class="cls-7" x="70.48" y="0">R</tspan><tspan x="94.99" y="0">YTHING</tspan><tspan x="-29.57" y="50.69">ELSE (FRIENDS,</tspan><tspan class="cls-8" x="3.27" y="101.39">F</tspan><tspan class="cls-9" x="23.63" y="101.39">AMI</tspan><tspan class="cls-10" x="92.3" y="101.39">L</tspan><tspan class="cls-11" x="110.35" y="101.39">Y</tspan><tspan x="126.79" y="101.39">, ETC)</tspan><tspan x="83.84" y="152.08">37%</tspan></text><text class="cls-12" transform="translate(948.67 219.51)">ALL other<tspan x="0" y="45.62">conflicts</tspan></text><text class="cls-12" transform="translate(1048.98 367.7)"><tspan class="cls-13">ev</tspan><tspan x="37.3" y="0">erything else</tspan><tspan x="0" y="45.62">(long-distance, etc)</tspan></text><text class="cls-12" transform="translate(1065.59 782.01)">infidelity</text><text class="cls-12" transform="translate(713.93 1124.18)">sal<tspan class="cls-14" x="48.28" y="0">v</tspan><tspan x="65.2" y="0">aging a</tspan><tspan x="0" y="45.62">friendship</tspan></text><path class="cls-1" d="M558,101l-1.77,0V203.38l1.77,0a403.43,403.43,0,0,1,236.14,75.88l59.92-83A505.25,505.25,0,0,0,558,101Z"/><path class="cls-1" d="M854,196.27l-59.92,83a407.27,407.27,0,0,1,89.73,88.47l82.44-60.63A510.72,510.72,0,0,0,854,196.27Z"/><path class="cls-1" d="M1049,479.47a505.73,505.73,0,0,0-82.7-172.4L883.84,367.7A403.7,403.7,0,0,1,950,505.35Z"/><path class="cls-3" d="M558,1013.93l-1.77,0v102.33l1.77,0A505.74,505.74,0,0,0,901.11,982.68l-69.36-75.22A403.77,403.77,0,0,1,558,1013.93Z"/><path class="cls-3" d="M1049,479.47l-99,25.88A405.81,405.81,0,0,1,831.75,907.46l69.36,75.22c101.09-92.78,164.48-226,164.48-374A508.38,508.38,0,0,0,1049,479.47Z"/><path class="cls-3" d="M261.37,884.8l-74.79,69.83a509.63,509.63,0,0,0,80.35,69.87l58.43-84A406.37,406.37,0,0,1,261.37,884.8Z"/><path class="cls-3" d="M266.93,1024.5a505.14,505.14,0,0,0,289.27,91.74V1013.91A403.25,403.25,0,0,1,325.36,940.5Z"/><text class="cls-12" transform="translate(325.36 1136.86)">grief</text><text class="cls-12" transform="translate(0 997.85)">managing<tspan x="0" y="45.62">other people</tspan><tspan class="cls-15" x="208.54" y="45.62">’</tspan><tspan x="214.96" y="45.62">s</tspan><tspan x="0" y="91.25">reactions</tspan></text><text class="cls-12" transform="translate(751.57 32.32)">Ad <tspan class="cls-16" x="54.56" y="0">w</tspan><tspan x="79.96" y="0">anting </tspan><tspan class="cls-17" x="191.12" y="0">t</tspan><tspan class="cls-18" x="200.59" y="0">o</tspan><tspan x="0" y="45.62">get back </tspan><tspan class="cls-17" x="156.33" y="45.62">t</tspan><tspan x="165.8" y="45.62">ogether</tspan><tspan x="0" y="91.25">with “Katie” </tspan></text><text class="cls-6" transform="translate(234.87 965.92)">4%</text><text class="cls-6" transform="translate(390.19 1057.45)">26%</text><text class="cls-6" transform="translate(697.42 1049)">32%</text><text class="cls-6" transform="translate(964.26 751.88)">39%</text><text class="cls-4" transform="translate(673.88 190.13)">40%</text><text class="cls-4" transform="translate(852.6 301.37)">25%</text><text class="cls-4" transform="translate(942.72 427.4)">35%</text></svg>