<svg id="Layer_1" data-name="Layer 1" xmlns="http://www.w3.org/2000/svg" viewBox="0 0 1402.78 1063.92"><defs><style>.cls-1{fill:#c266c2;}.cls-1,.cls-18,.cls-2,.cls-3{stroke:#fff;stroke-miterlimit:10;}.cls-1,.cls-2,.cls-3{stroke-width:8px;}.cls-2{fill:#0c9;}.cls-3{fill:#009ddc;}.cls-4,.cls-6{font-size:42.24px;font-family:DINAlternate-Bold, DIN Alternate;font-weight:700;}.cls-4{fill:#222;}.cls-5{letter-spacing:-0.07em;}.cls-6{fill:#fff;}.cls-7{letter-spacing:-0.03em;}.cls-8{letter-spacing:-0.06em;}.cls-9{letter-spacing:0em;}.cls-10{letter-spacing:-0.13em;}.cls-11{letter-spacing:-0.11em;}.cls-12{font-size:38.02px;font-family:MyanmarSangamMN, Myanmar Sangam MN;}.cls-13{letter-spacing:-0.01em;}.cls-14{letter-spacing:0em;}.cls-15{letter-spacing:-0.03em;}.cls-16{letter-spacing:-0.01em;}.cls-17{letter-spacing:-0.05em;}.cls-18{fill:none;stroke-width:26px;}</style></defs><title>reasons-for-crying</title><path class="cls-1" d="M719.6,580.53,996.33,875.77A405,405,0,0,0,1125.77,578.5c0-224.32-181.85-406.17-406.17-406.17a406.63,406.63,0,0,0-103.76,13.4Z"/><path class="cls-2" d="M615.84,185.73C441.79,231.58,313.43,390,313.43,578.5c0,.68,0,1.35,0,2H719.6Z"/><path class="cls-3" d="M313.46,580.53C314.55,803.91,496,984.67,719.6,984.67a404.72,404.72,0,0,0,276.73-108.9L719.6,580.53Z"/><text class="cls-4" transform="translate(372.88 443.49)">REL<tspan class="cls-5" x="72.75" y="0">A</tspan><tspan x="95.38" y="0">TIONSHIP</tspan><tspan x="91.82" y="50.69">(21%)</tspan></text><text class="cls-6" transform="translate(824.8 454.49)">“TRUTH” /<tspan x="-2.36" y="50.69">BREAKUP</tspan><tspan x="44.18" y="101.39">(42%)</tspan></text><text class="cls-6" transform="translate(521.04 740.9)">EVE<tspan class="cls-7" x="70.48" y="0">R</tspan><tspan x="94.99" y="0">YTHING</tspan><tspan x="-29.57" y="50.69">ELSE (FRIENDS,</tspan><tspan class="cls-8" x="3.27" y="101.39">F</tspan><tspan class="cls-9" x="23.63" y="101.39">AMI</tspan><tspan class="cls-10" x="92.3" y="101.39">L</tspan><tspan class="cls-11" x="110.35" y="101.39">Y</tspan><tspan x="126.79" y="101.39">, ETC)</tspan><tspan x="72.1" y="152.08">(37%)</tspan></text><text class="cls-12" transform="translate(162.75 186.03)">ALL other<tspan x="0" y="45.62">conflicts</tspan></text><text class="cls-12" transform="translate(244.67 32.32)"><tspan class="cls-13">ev</tspan><tspan x="37.3" y="0">erything else</tspan><tspan x="0" y="45.62">(long-distance,etc)</tspan></text><text class="cls-12" transform="translate(862.84 69.11)">infidelity</text><text class="cls-12" transform="translate(1215.19 359.51)">sal<tspan class="cls-14" x="48.28" y="0">v</tspan><tspan x="65.2" y="0">aging a</tspan><tspan x="0" y="45.62">friendship</tspan></text><path class="cls-2" d="M212,576.73c0,.59,0,1.18,0,1.77H314.33c0-.59,0-1.18,0-1.77a403.37,403.37,0,0,1,75.88-236.15l-83-59.91A505.26,505.26,0,0,0,212,576.73Z"/><path class="cls-2" d="M307.23,280.67l83,59.91a407.66,407.66,0,0,1,88.46-89.73L418,168.42A510.06,510.06,0,0,0,307.23,280.67Z"/><path class="cls-2" d="M590.42,85.72A505.68,505.68,0,0,0,418,168.42l60.62,82.43A403.76,403.76,0,0,1,616.3,184.74Z"/><path class="cls-1" d="M1124.89,576.73c0,.59,0,1.18,0,1.77h102.33c0-.59,0-1.18,0-1.77a505.8,505.8,0,0,0-133.57-343.15L1018.42,303A403.82,403.82,0,0,1,1124.89,576.73Z"/><path class="cls-1" d="M590.42,85.72l25.88,99A405.83,405.83,0,0,1,1018.42,303l75.22-69.37c-92.79-101.09-226-164.47-374-164.47A508.52,508.52,0,0,0,590.42,85.72Z"/><path class="cls-1" d="M995.76,873.33l69.83,74.79a511.11,511.11,0,0,0,69.87-80.35l-84-58.43A408.31,408.31,0,0,1,995.76,873.33Z"/><path class="cls-1" d="M1135.46,867.77a505.15,505.15,0,0,0,91.73-289.27H1124.86a403.27,403.27,0,0,1-73.4,230.84Z"/><text class="cls-12" transform="translate(1240.98 713.27)">grief</text><text class="cls-12" transform="translate(1125.77 948.11)">managing<tspan x="0" y="45.62">other people</tspan><tspan class="cls-15" x="208.54" y="45.62">’</tspan><tspan x="214.96" y="45.62">s</tspan><tspan x="0" y="91.25">reactions</tspan></text><text class="cls-12" transform="translate(0.04 359.51)">Ad <tspan class="cls-16" x="54.56" y="0">w</tspan><tspan x="79.96" y="0">anting</tspan><tspan class="cls-17" x="0" y="45.62">t</tspan><tspan x="9.47" y="45.62">o get back</tspan><tspan class="cls-17" x="0" y="91.25">t</tspan><tspan x="9.47" y="91.25">ogether with</tspan><tspan x="0" y="136.87">“Katie” </tspan></text><text class="cls-6" transform="translate(1047.43 887.07)">4%</text><text class="cls-6" transform="translate(1120.82 729.61)">26%</text><text class="cls-6" transform="translate(1116.37 429.38)">32%</text><text class="cls-6" transform="translate(827.56 159.54)">39%</text><text class="cls-4" transform="translate(260.64 436.11)">40%</text><text class="cls-4" transform="translate(361.74 274.2)">25%</text><text class="cls-4" transform="translate(494.77 185.73)">35%</text><line class="cls-18" x1="727.14" y1="580.53" x2="162.27" y2="580.53"/><line class="cls-18" x1="724.07" y1="577.91" x2="590.42" y2="69.11"/><line class="cls-18" x1="1069.57" y1="948.12" x2="724.07" y2="577.91"/></svg>