<svg xmlns="http://www.w3.org/2000/svg" viewBox="0 0 1061.02 1383.89"><defs><style>.cls-1,.cls-14,.cls-15{fill:none;stroke-miterlimit:10;}.cls-1{stroke:#666;stroke-width:2px;}.cls-13,.cls-2{font-size:55.67px;}.cls-2,.cls-9{fill:#333;}.cls-13,.cls-16,.cls-17,.cls-2{font-family:DINAlternate-Bold, DIN Alternate;}.cls-13,.cls-16,.cls-17,.cls-2,.cls-9{font-weight:700;}.cls-3{letter-spacing:-0.02em;}.cls-4{letter-spacing:0em;}.cls-5{letter-spacing:-0.09em;}.cls-6{letter-spacing:-0.01em;}.cls-7{letter-spacing:-0.01em;}.cls-8{fill:#efefef;opacity:0.5;}.cls-9{font-size:54px;font-family:DINCondensed-Bold, DIN Condensed;}.cls-10{letter-spacing:-0.01em;}.cls-11{letter-spacing:-0.05em;}.cls-12{letter-spacing:-0.07em;}.cls-13{fill:#666;}.cls-14{stroke:#e78f00;}.cls-14,.cls-15{stroke-width:4px;}.cls-15{stroke:#488b00;}.cls-16,.cls-17{font-size:55.67px;}.cls-16{fill:#e78f00;}.cls-17{fill:#488b00;}</style></defs><title>who-talked-about-what</title><g id="Layer_2" data-name="Layer 2"><line class="cls-1" x1="75.28" y1="1226.26" x2="984.62" y2="1226.26"/><text class="cls-2" transform="translate(72.03 1301.82)">Befo<tspan class="cls-3" x="105.08" y="0">r</tspan><tspan class="cls-4" x="125.74" y="0">e</tspan><tspan class="cls-5" x="17.3" y="66.8">T</tspan><tspan class="cls-6" x="40.02" y="66.8">r</tspan><tspan x="61.01" y="66.8">uth</tspan></text><text class="cls-2" transform="translate(872.31 1301.82)">After<tspan class="cls-5" x="-2.3" y="66.8">T</tspan><tspan class="cls-7" x="20.43" y="66.8">r</tspan><tspan x="41.41" y="66.8">uth</tspan></text><rect class="cls-8" x="99.95" y="932.6" width="862.47" height="268.18"/><text class="cls-9" transform="translate(266.6 987.69)">ASKING ABOUT EACH <tspan class="cls-10" x="350.89" y="0">O</tspan><tspan x="373.24" y="0">THER</tspan></text><rect class="cls-8" x="99.95" y="4.71" width="862.47" height="383.08"/><text class="cls-9" transform="translate(137.16 61.47)">GENERAL DISCUSSION</text><rect class="cls-8" x="99.95" y="404.76" width="862.47" height="510.88"/><text class="cls-9" transform="translate(487.34 469.76)"><tspan class="cls-11">T</tspan><tspan x="14.96" y="0">ALKING ABOUT OURSE</tspan><tspan class="cls-12" x="377.83" y="0">L</tspan><tspan x="393.82" y="0">VES</tspan></text><text class="cls-13" transform="translate(0 812.73)">26%</text><text class="cls-13" transform="translate(26.72 1161.32)">5%</text><text class="cls-13" transform="translate(0 987.69)">15%</text><text class="cls-13" transform="translate(0 449.57)">46%</text><text class="cls-13" transform="translate(0 367.39)">49%</text><text class="cls-13" transform="translate(0 207.58)">59%</text><line class="cls-14" x1="127.59" y1="795.83" x2="942.01" y2="687.46"/><line class="cls-14" x1="130.19" y1="965.6" x2="942.01" y2="1179.29"/><line class="cls-14" x1="120.36" y1="192.24" x2="942.01" y2="49.78"/><line class="cls-15" x1="125.9" y1="1141.98" x2="942.01" y2="952.03"/><line class="cls-15" x1="125.64" y1="427.9" x2="942.01" y2="894.37"/><line class="cls-15" x1="126.17" y1="354.44" x2="942.01" y2="83.7"/><text class="cls-13" transform="translate(978.69 47.81)">67%</text><text class="cls-13" transform="translate(978.69 705.71)">31%</text><text class="cls-13" transform="translate(978.69 1200.78)">3%</text><text class="cls-13" transform="translate(978.69 965.08)">16%</text><text class="cls-13" transform="translate(978.69 894.12)">19%</text><text class="cls-13" transform="translate(978.69 109.09)">65%</text><text class="cls-16" transform="translate(137.16 177.3) rotate(-10.17)">Ad</text><text class="cls-17" transform="translate(145.81 336.96) rotate(-18.54)">Robin</text></g></svg>