<svg xmlns="http://www.w3.org/2000/svg" viewBox="0 0 1010.41 1227.74"><defs><style>.cls-1,.cls-12,.cls-13,.cls-14{fill:none;stroke-miterlimit:10;}.cls-1{stroke:#666;stroke-width:2px;}.cls-2,.cls-9{font-size:55.67px;}.cls-10,.cls-11,.cls-15,.cls-2{fill:#333;}.cls-10,.cls-11,.cls-15,.cls-2,.cls-9{font-family:DINAlternate-Bold, DIN Alternate;font-weight:700;}.cls-3{letter-spacing:-0.07em;}.cls-4{letter-spacing:0em;}.cls-5{letter-spacing:-0.02em;}.cls-6{letter-spacing:-0.07em;}.cls-7{letter-spacing:0em;}.cls-8{letter-spacing:-0.02em;}.cls-9{fill:#666;}.cls-10{font-size:55.67px;}.cls-11{font-size:55.67px;}.cls-12{stroke:#e78f00;}.cls-12,.cls-13,.cls-14{stroke-width:4px;}.cls-13{stroke:#488b00;}.cls-14{stroke:#a000a0;}.cls-15{font-size:55.67px;}.cls-16{letter-spacing:-0.02em;}</style></defs><title>who-talked-about-what</title><g id="Layer_2" data-name="Layer 2"><line class="cls-1" x1="41.32" y1="1070.11" x2="969.09" y2="1070.11"/><text class="cls-2" transform="translate(29.94 1145.66)">Robin<tspan class="cls-3" x="133.92" y="0">’</tspan><tspan class="cls-4" x="143.14" y="0">s</tspan><tspan x="-29.94" y="66.8">p</tspan><tspan class="cls-5" x="-1.05" y="66.8">r</tspan><tspan class="cls-4" x="19.61" y="66.8">oposals</tspan></text><text class="cls-2" transform="translate(846.16 1145.66)">Ad<tspan class="cls-6" x="62.84" y="0">’</tspan><tspan class="cls-7" x="72.06" y="0">s</tspan><tspan x="-65.48" y="66.8">p</tspan><tspan class="cls-8" x="-36.59" y="66.8">r</tspan><tspan x="-15.93" y="66.8">oposals</tspan></text><text class="cls-9" transform="translate(879.79 656.58)">26%</text><text class="cls-9" transform="translate(55.37 1005.17)">5%</text><text class="cls-9" transform="translate(879.79 831.54)">15%</text><text class="cls-9" transform="translate(14.29 293.41)">46%</text><text class="cls-10" transform="translate(415.22 834.07) rotate(-26.07)">Ad Story</text><text class="cls-11" transform="matrix(0.8, 0.6, -0.6, 0.8, 379.87, 449.5)">Robin Story</text><line class="cls-12" x1="139.01" y1="981.65" x2="845.51" y2="636.21"/><line class="cls-13" x1="139.01" y1="280.17" x2="845.14" y2="818.95"/><line class="cls-14" x1="139.01" y1="199.1" x2="854.81" y2="26.37"/><text class="cls-15" transform="translate(281.76 150.38) rotate(-13.35)">Gene<tspan class="cls-16" x="119.52" y="0">r</tspan><tspan x="140.18" y="0">al Discussion</tspan></text><text class="cls-9" transform="translate(14.29 211.24)">49%</text><text class="cls-9" transform="translate(879.79 51.43)">59%</text></g></svg>