<?xml version="1.0" encoding="utf-8"?>
<!-- Generator: Adobe Illustrator 22.0.0, SVG Export Plug-In . SVG Version: 6.00 Build 0)  -->
<svg version="1.1" id="Layer_1" xmlns="http://www.w3.org/2000/svg" xmlns:xlink="http://www.w3.org/1999/xlink" x="0px" y="0px"
	 viewBox="0 0 818.6 298.8" style="enable-background:new 0 0 818.6 298.8;" xml:space="preserve">
<style type="text/css">
	.st0{fill:#6B6ECF;}
	.st1{font-family:'Verdana';}
	.st2{font-size:69.935px;}
	.st3{fill:#9C9EDE;}
	.st4{fill:#637939;}
	.st5{font-size:67.1376px;}
	.st6{fill:#8CA252;}
	.st7{font-size:63.6409px;}
	.st8{fill:#B5CF6B;}
	.st9{font-size:53.85px;}
	.st10{fill:#CEDB9C;}
	.st11{font-size:52.4513px;}
	.st12{fill:#8C6D31;}
	.st13{font-size:50.3532px;}
	.st14{fill:#BD9E39;}
	.st15{font-size:41.961px;}
	.st16{fill:#E7BA52;}
	.st17{font-size:38.4642px;}
	.st18{fill:#E7CB94;}
	.st19{font-size:34.2682px;}
	.st20{fill:#843C39;}
	.st21{font-size:28.6734px;}
	.st22{fill:#AD494A;}
	.st23{fill:#D6616B;}
	.st24{fill:#E7969C;}
	.st25{fill:#7B4173;}
	.st26{font-size:20.2811px;}
	.st27{fill:#A55194;}
	.st28{fill:#CE6DBD;}
	.st29{fill:#DE9ED6;}
	.st30{fill:#393B79;}
	.st31{fill:#5254A3;}
	.st32{font-size:13.1684px;}
	.st33{font-size:15.1899px;}
</style>
<text transform="matrix(1 0 0 1 116.9893 108.6514)" class="st0 st1 st2">angry</text>
<text transform="matrix(1 0 0 1 525.8296 69.1074)" class="st3 st1 st2">sad</text>
<text transform="matrix(1 0 0 1 591.1846 190.4575)" class="st4 st1 st5">hurt</text>
<text transform="matrix(1 0 0 1 228.2905 173.6709)" class="st6 st1 st7">devastated</text>
<text transform="matrix(1 0 0 1 333.8896 117.8027)" class="st8 st1 st9">worn-down</text>
<text transform="matrix(1 0 0 1 174.4863 232.459)" class="st10 st1 st11">self-sympathizing</text>
<text transform="matrix(1 0 0 1 256.4688 283.5488)" class="st12 st1 st13">miserable</text>
<text transform="matrix(1 0 0 1 154.9941 58.4465)" class="st14 st1 st15">unsupported</text>
<text transform="matrix(1 0 0 1 653.4814 128.5303)" class="st16 st1 st17">repulsed</text>
<text transform="matrix(1 0 0 1 0 158.2849)" class="st18 st1 st19">dissatisfied</text>
<text transform="matrix(1 0 0 1 111.4189 268.377)" class="st20 st1 st21">cathartic</text>
<text transform="matrix(1 0 0 1 431.146 69.1074)" class="st22 st1 st21">lonely</text>
<text transform="matrix(1 0 0 1 522.564 272.5469)" class="st23 st1 st21">remorseful</text>
<text transform="matrix(1 0 0 1 21.4971 190.4575)" class="st24 st1 st21">overwhelmed</text>
<text transform="matrix(1 0 0 1 0 122.2129)" class="st25 st1 st26">empathetic</text>
<text transform="matrix(1 0 0 1 431.146 35.1831)" class="st27 st1 st26">panicked</text>
<text transform="matrix(1 0 0 1 653.4814 62.9658)" class="st28 st1 st26">doubtful</text>
<text transform="matrix(1 0 0 1 16.873 232.459)" class="st29 st1 st26">inadequate</text>
<text transform="matrix(1 0 0 1 21.4971 97.7031)" class="st30 st1 st26">ashamed</text>
<text transform="matrix(1 0 0 1 299.7705 17.5132)" class="st31 st1 st26">vulnerable</text>
<text transform="matrix(1 0 0 1 86.3179 58.4463)" class="st0 st1 st32">relieved</text>
<text transform="matrix(1 0 0 1 653.4814 89.5132)" class="st3 st1 st33">compassionate</text>
<text transform="matrix(1 0 0 1 86.3184 210.5693)" class="st4 st1 st33">apoplectic</text>
</svg>
